<?xml version="1.0" encoding="UTF-8" standalone="no"?>
<!DOCTYPE svg PUBLIC "-//W3C//DTD SVG 1.1//EN" "http://www.w3.org/Graphics/SVG/1.1/DTD/svg11.dtd">
<svg version="1.1" xmlns="http://www.w3.org/2000/svg" xmlns:xlink="http://www.w3.org/1999/xlink" preserveAspectRatio="xMidYMid meet" viewBox="0 0 640 640" width="640" height="640"><defs><path d="M6.4 6.4L6.4 6.4L6.4 6.4Z" id="b1DPaw3gL1"></path><path d="M502.46 640C534.58 640 560.71 613.87 560.71 581.76C560.71 538.23 560.71 190.07 560.71 146.55C560.71 140.89 558.34 135.44 554.55 131.7C542 119.14 441.57 18.71 429.01 6.16C425.22 2.36 419.84 0 414.15 0C414.15 0 414.14 0 414.14 0C386.48 0 165.2 0 137.54 0C105.42 0 79.29 26.13 79.29 58.25C79.29 110.6 79.29 529.4 79.29 581.76C79.29 613.87 105.42 640 137.54 640C210.52 640 465.97 640 502.46 640ZM489 125.55C457.89 125.55 440.61 125.55 437.15 125.55C436.05 125.55 435.16 124.65 435.16 123.56C435.16 120.1 435.16 102.82 435.16 71.72L489 125.55ZM137.54 42.01C154.58 42.01 239.78 42.01 393.15 42.01C393.15 90.94 393.16 118.12 393.16 123.56C393.16 147.82 412.89 167.55 437.15 167.55C442.59 167.55 469.77 167.55 518.7 167.55C518.7 416.07 518.7 554.14 518.7 581.76C518.7 590.71 511.42 597.99 502.46 597.99C465.97 597.99 174.03 597.99 137.54 597.99C128.58 597.99 121.3 590.71 121.3 581.76C121.3 546.85 121.3 372.35 121.3 58.25C126.16 47.42 131.57 42.01 137.54 42.01Z" id="cvHuAKd98"></path><path d="M455.87 444.11C467.47 444.11 476.87 434.71 476.87 423.11C476.87 411.51 467.47 402.1 455.87 402.1C428.69 402.1 211.31 402.1 184.13 402.1C172.53 402.1 163.13 411.51 163.13 423.11C163.13 434.71 172.53 444.11 184.14 444.11C238.48 444.11 428.69 444.11 455.87 444.11Z" id="a3aQq1lcwI"></path><path d="M455.87 271C467.47 271 476.87 261.59 476.87 250C476.87 238.4 467.47 228.99 455.87 228.99C428.69 228.99 211.31 228.99 184.13 228.99C172.53 228.99 163.13 238.4 163.13 250C163.13 261.59 172.53 271 184.13 271C238.48 271 428.69 271 455.87 271Z" id="a225wc4Ed"></path><path d="M355.56 109.21C355.56 100.76 348.69 93.89 340.26 93.92C339.86 93.92 337.83 93.91 334.19 93.89C334.18 78.61 334.18 70.12 334.18 68.42C334.19 64.07 330.7 60.58 326.33 60.58C322.54 60.58 292.18 60.58 288.38 60.58C284.03 60.57 280.53 64.06 280.53 68.43C280.53 70.12 280.54 78.61 280.54 93.89C253.3 93.9 238.17 93.91 235.15 93.91C232.8 86.55 228.69 79.61 222.85 73.77C203.28 54.2 171.55 54.2 151.98 73.77C132.4 93.34 132.4 125.08 151.98 144.65C171.55 164.22 203.28 164.22 222.85 144.65C228.69 138.81 232.8 131.86 235.15 124.5C242.15 124.51 277.18 124.51 340.24 124.53C350.45 119.95 355.56 114.84 355.56 109.21ZM173.78 122.84C166.26 115.32 166.26 103.1 173.78 95.58C181.31 88.06 193.52 88.06 201.04 95.58C208.57 103.1 208.57 115.32 201.04 122.84C193.52 130.36 181.31 130.36 173.78 122.84Z" id="bnX5HSUyC"></path></defs><g><g><g><use xlink:href="#b1DPaw3gL1" opacity="1" fill="#000000" fill-opacity="1"></use><g><use xlink:href="#b1DPaw3gL1" opacity="1" fill-opacity="0" stroke="#000000" stroke-width="1" stroke-opacity="0"></use></g></g><g><use xlink:href="#cvHuAKd98" opacity="1" fill="#7f7f00" fill-opacity="1"></use><g><use xlink:href="#cvHuAKd98" opacity="1" fill-opacity="0" stroke="#000000" stroke-width="1" stroke-opacity="0"></use></g></g><g><use xlink:href="#a3aQq1lcwI" opacity="1" fill="#7f7f00" fill-opacity="1"></use><g><use xlink:href="#a3aQq1lcwI" opacity="1" fill-opacity="0" stroke="#000000" stroke-width="1" stroke-opacity="0"></use></g></g><g><use xlink:href="#a225wc4Ed" opacity="1" fill="#7f7f00" fill-opacity="1"></use><g><use xlink:href="#a225wc4Ed" opacity="1" fill-opacity="0" stroke="#000000" stroke-width="1" stroke-opacity="0"></use></g></g><g><use xlink:href="#bnX5HSUyC" opacity="1" fill="#7f7f00" fill-opacity="1"></use><g><use xlink:href="#bnX5HSUyC" opacity="1" fill-opacity="0" stroke="#000000" stroke-width="1" stroke-opacity="0"></use></g></g></g></g></svg>