<?xml version="1.0" encoding="iso-8859-1"?>
<!DOCTYPE svg PUBLIC "-//W3C//DTD SVG 1.1//EN" "http://www.w3.org/Graphics/SVG/1.1/DTD/svg11.dtd">
<svg version="1.1" id="Capa_1" xmlns="http://www.w3.org/2000/svg" xmlns:xlink="http://www.w3.org/1999/xlink" x="0px" y="0px"
	 width="959.5px" height="959.5px" viewBox="0 0 959.5 959.5" style="enable-background:new 0 0 959.5 959.5;" xml:space="preserve"
	>
<g>
	<path d="M110,795.65h739.5c60.801,0,110-49.201,110-110c0-60.801-49.199-110-110-110H110c-60.8,0-110,49.199-110,110
		C0,746.449,49.2,795.65,110,795.65z"/>
	<path d="M110,383.849h739.5c60.801,0,110-49.2,110-110c0-60.8-49.199-110-110-110H110c-60.8,0-110,49.2-110,110
		C0,334.649,49.2,383.849,110,383.849z"/>
</g>
</svg>
