<?xml version="1.0" encoding="utf-8"?>
<!-- Svg Vector Icons : http://www.onlinewebfonts.com/icon -->
<!DOCTYPE svg PUBLIC "-//W3C//DTD SVG 1.1//EN" "http://www.w3.org/Graphics/SVG/1.1/DTD/svg11.dtd">
<svg version="1.1" xmlns="http://www.w3.org/2000/svg" xmlns:xlink="http://www.w3.org/1999/xlink" x="0px" y="0px" viewBox="0 0 1000 1000" enable-background="new 0 0 1000 1000" xml:space="preserve">
<metadata> Svg Vector Icons : http://www.onlinewebfonts.com/icon </metadata>
<g><path d="M905.3,407.7H584.1l0.6-310.3c0-0.3-0.1-0.4-0.1-0.7v-4.9h-0.5c-3.3-43.8-40.4-78.8-84.9-79.1c-44.5-0.3-81.1,34.1-83.8,77.9h-0.6l0.1,317H93.5C47.1,407.3,9.7,445.5,10,492c0.3,46.5,38.2,84.4,84.7,84.7l320.1-0.3l0.1,326.2c0.3,46.5,38.2,84.4,84.7,84.7c46.5,0.3,83.8-37.1,83.5-83.5l0.6-327.5l322.8-0.3c46.5,0.3,83.8-37.1,83.5-83.6C989.7,445.9,951.8,408,905.3,407.7z"/></g>
</svg>