<svg xmlns="http://www.w3.org/2000/svg" xmlns:xlink="http://www.w3.org/1999/xlink" viewBox="0 0 81 82" fill="#fff" fill-rule="evenodd" stroke="#000" stroke-linecap="round" stroke-linejoin="round"><use xlink:href="#A" x=".5" y=".5"/><symbol id="A" overflow="visible"><path d="M1.333 0C.533 0 0 .533 0 1.333v16c0 .8.533 1.333 1.333 1.333h8c.8 0 1.333-.533 1.333-1.333v-6.666h58.667v6.667c0 .8.533 1.333 1.6 1.333h7.733c.8 0 1.333-.533 1.333-1.333v-16C80 .533 79.467 0 78.667 0h0H1.333zm77.334 80c.8 0 1.333-.533 1.333-1.333V62.934c0-.8-.533-1.333-1.333-1.333h-7.733c-.8 0-1.333.533-1.333 1.333v6.4H10.667v-6.667c0-.8-.533-1.333-1.6-1.333H1.333c-.8 0-1.333.533-1.333 1.6v15.733C0 79.467.533 80 1.333 80h77.334z" fill="#0072c6" stroke="none"/><path d="M47.771 41.757A10.92 10.92 0 0 1 40 44.976a10.92 10.92 0 0 1-7.773-3.219L17.333 26.863V57.14h45.333V26.861L47.771 41.757zM40 42.765a8.72 8.72 0 0 0 6.208-2.571l16.458-16.458v-.872H17.333v.873l16.458 16.455c1.659 1.659 3.864 2.573 6.21 2.573z" stroke="none" fill="#59b4d9"/></symbol></svg>